<?xml version="1.0" encoding="UTF-8"?>
<svg version="1.1" xmlns="http://www.w3.org/2000/svg" width="500" height="500">
<path d="M0 0 C12.03356457 3.78226484 12.03356457 3.78226484 24.05126953 1.72070312 C25.36611328 0.98013672 25.36611328 0.98013672 26.70751953 0.22460938 C27.136687 16.27070421 25.84742593 32.2310556 24.70751953 48.22460938 C22.70751953 47.22460938 22.70751953 47.22460938 21.84814453 44.92382812 C21.55423828 43.92996094 21.26033203 42.93609375 20.95751953 41.91210938 C15.63846066 25.56809211 5.83026066 11.06149628 -9.80419922 2.91601562 C-19.37567239 -1.12216795 -30.18346602 -1.25827912 -39.98388672 2.18554688 C-47.70121821 5.65899895 -55.09064402 10.72835855 -58.32373047 18.79882812 C-62.03340446 31.11288484 -60.25879188 40.89735723 -54.29248047 52.16210938 C-51.86720826 56.67294994 -51.86720826 56.67294994 -48.29248047 60.22460938 C-44.02109621 61.09754438 -39.64265542 61.08261553 -35.29248047 61.22460938 C-34.55852051 61.25184082 -33.82456055 61.27907227 -33.06835938 61.30712891 C-18.64056962 62.12520863 -18.64056962 62.12520863 -5.91748047 56.28710938 C-3.557149 53.29190432 -3.557149 53.29190432 -1.29248047 50.22460938 C0.46393585 55.93467098 1.60787661 61.65493746 2.65283203 67.53320312 C2.8275705 68.49992447 3.00230896 69.46664581 3.18234253 70.46266174 C3.73573037 73.52855565 4.28419693 76.59530595 4.83251953 79.66210938 C5.20849613 81.75005864 5.58479482 83.83794993 5.96142578 85.92578125 C6.88051937 91.02472725 7.79520254 96.12444671 8.70751953 101.22460938 C8.04751953 101.22460938 7.38751953 101.22460938 6.70751953 101.22460938 C5.51611328 99.38867187 5.51611328 99.38867187 4.14501953 96.84960938 C-4.52254 82.01192271 -17.58792507 72.73683301 -33.80029297 67.74023438 C-36.68051837 67.14432567 -39.35920973 67.13958703 -42.29248047 67.22460938 C-36.50881233 73.26532943 -30.46301083 78.71174286 -23.92333984 83.91894531 C-22.11526545 85.3664875 -20.32029358 86.82928741 -18.52685547 88.29492188 C-12.04284105 93.59161098 -5.52942274 98.83836013 1.08251953 103.97460938 C6.06479529 107.85413027 10.82740533 111.89975716 15.47705078 116.17773438 C17.54048228 118.07132125 19.64326534 119.90287101 21.77001953 121.72460938 C38.73948076 136.61964749 53.72829954 155.43152139 57.70751953 178.22460938 C59.10798309 201.83302996 56.65177548 225.3769458 42.70751953 245.22460938 C42.14677734 246.03027344 41.58603516 246.8359375 41.00830078 247.66601562 C29.03793747 263.70178534 11.17507827 274.80432839 -8.29248047 279.22460938 C-9.42641235 279.48624878 -9.42641235 279.48624878 -10.58325195 279.75317383 C-17.92677442 281.28474698 -25.10834318 281.56493492 -32.59790039 281.5402832 C-34.59185246 281.53713013 -36.58578573 281.56144359 -38.57958984 281.5859375 C-63.89821617 281.59845289 -87.99821575 271.69336869 -106.29248047 254.22460938 C-122.44047264 236.94099512 -129.31764417 214.98596291 -128.56591797 191.66992188 C-127.6125334 173.52409814 -121.35753866 157.24711038 -108.29248047 144.22460938 C-90.46733856 128.66210158 -66.61759222 122.36776854 -43.29248047 123.22460938 C-43.29248047 124.21460938 -43.29248047 125.20460937 -43.29248047 126.22460938 C-44.29666016 126.38316406 -45.30083984 126.54171875 -46.33544922 126.70507812 C-66.13926776 130.00490278 -83.60787399 137.69057888 -95.67138672 154.45117188 C-109.01969531 173.85002231 -112.89872341 196.02829908 -108.70751953 219.03100586 C-107.39689931 225.4817608 -105.224063 231.32654452 -102.29248047 237.22460938 C-101.90060547 238.03414062 -101.50873047 238.84367188 -101.10498047 239.67773438 C-98.55436791 244.61115604 -95.4648618 248.56719198 -91.64794922 252.59570312 C-90.29248047 254.22460938 -90.29248047 254.22460938 -90.29248047 256.22460938 C-89.72787109 256.48628906 -89.16326172 256.74796875 -88.58154297 257.01757812 C-86.0897392 258.3315156 -83.93735212 259.8698258 -81.66748047 261.53710938 C-63.46802448 274.28730964 -41.08257951 277.47518999 -19.29248047 274.22460938 C-1.78607318 270.38614879 13.1811706 262.04428057 23.18017578 246.82226562 C33.73504044 228.87089735 37.18014012 206.12499976 32.20751953 185.78710938 C26.53259304 166.34155706 13.45172778 151.54630537 -0.29248047 137.22460938 C-1.07623047 136.39960938 -1.85998047 135.57460937 -2.66748047 134.72460938 C-7.2268054 130.03501801 -12.0640462 125.91651859 -17.17138672 121.83789062 C-21.76963398 118.07128953 -26.03886099 113.92944811 -30.34179688 109.83325195 C-30.95587402 109.2508374 -31.56995117 108.66842285 -32.20263672 108.06835938 C-32.75056885 107.54435547 -33.29850098 107.02035156 -33.86303711 106.48046875 C-35.28880746 105.12045761 -35.28880746 105.12045761 -37.29248047 104.22460938 C-37.29248047 103.56460938 -37.29248047 102.90460938 -37.29248047 102.22460938 C-37.88923584 101.95092529 -38.48599121 101.67724121 -39.10083008 101.39526367 C-42.5800477 99.5368646 -45.0860919 96.8124179 -47.85498047 94.03710938 C-48.7739209 93.11901489 -48.7739209 93.11901489 -49.71142578 92.18237305 C-56.84531704 84.87911203 -62.64119343 76.70153994 -68.29248047 68.22460938 C-90.22107546 74.08923362 -109.61198266 86.28052287 -121.29248047 106.22460938 C-134.82730387 130.66030092 -139.73913036 156.34406414 -139.66748047 184.03710938 C-139.66693665 184.83665039 -139.66639282 185.63619141 -139.66583252 186.45996094 C-139.52832594 230.79648227 -126.44243558 273.88537081 -95.41748047 306.47460938 C-85.48726639 315.90228225 -74.40028331 322.95407325 -62.29248047 329.22460938 C-61.67115234 329.55090332 -61.04982422 329.87719727 -60.40966797 330.21337891 C-13.81955079 354.38819769 38.07837694 343.74335746 86.70751953 333.22460938 C140.50827041 321.58721429 140.50827041 321.58721429 162.95751953 321.84960938 C164.05572525 321.85708694 164.05572525 321.85708694 165.17611694 321.86471558 C175.92600732 321.95012602 186.30649693 322.25468185 196.70751953 325.22460938 C197.49239746 325.43972168 198.27727539 325.65483398 199.0859375 325.87646484 C221.85693924 332.28611238 246.7143382 344.20464239 262.70751953 362.22460938 C262.70751953 363.21460938 262.70751953 364.20460938 262.70751953 365.22460938 C258.90375987 364.61423864 256.61027192 362.85426682 253.58251953 360.53710938 C201.75853105 322.09812454 127.05227476 339.53491699 68.10205078 347.2565918 C67.15278717 347.38037704 66.20352356 347.50416229 65.22549438 347.63169861 C63.47358629 347.86056112 61.7219116 348.09122236 59.97055054 348.32423401 C50.1293727 349.61013514 40.39682452 350.38414408 30.46923828 350.42773438 C29.42717728 350.43343445 28.38511627 350.43913452 27.31147766 350.44500732 C25.11562086 350.45439321 22.91975039 350.46096554 20.72387695 350.46484375 C17.44146632 350.47447312 14.15970372 350.50552781 10.87744141 350.53710938 C-7.35813353 350.62939424 -25.12260718 348.94861546 -42.85498047 344.53710938 C-43.89106445 344.28147217 -44.92714844 344.02583496 -45.99462891 343.76245117 C-86.94637346 333.25517808 -124.42684123 308.97080098 -146.29248047 272.22460938 C-166.74791562 237.55634881 -177.44358484 193.01038941 -167.29248047 153.22460938 C-167.12619141 152.57169922 -166.95990234 151.91878906 -166.78857422 151.24609375 C-158.93375314 121.36868172 -140.30177777 94.98727481 -113.47265625 79.15039062 C-100.01211423 71.4038867 -85.82296984 65.17011344 -70.29248047 63.22460938 C-70.58123047 62.5671875 -70.86998047 61.90976563 -71.16748047 61.23242188 C-75.915885 49.06463527 -76.12232442 35.51985851 -71.67529297 23.18945312 C-66.03874458 11.10431125 -57.65860444 4.17477806 -45.41748047 -0.65039062 C-30.19099147 -6.1906312 -15.29780521 -4.59014404 0 0 Z " fill="#000000" transform="translate(210.29248046875,77.775390625)"/>
</svg>
